<?xml version="1.0" encoding="UTF-8" standalone="no"?>
<!-- Created with Inkscape (http://www.inkscape.org/) -->

<svg
   xmlns:dc="http://purl.org/dc/elements/1.1/"
   xmlns:cc="http://creativecommons.org/ns#"
   xmlns:rdf="http://www.w3.org/1999/02/22-rdf-syntax-ns#"
   xmlns:svg="http://www.w3.org/2000/svg"
   xmlns="http://www.w3.org/2000/svg"
   xmlns:sodipodi="http://sodipodi.sourceforge.net/DTD/sodipodi-0.dtd"
   xmlns:inkscape="http://www.inkscape.org/namespaces/inkscape"
   width="920"
   height="200"
   viewBox="0 0 919.99995 200.00003"
   id="svg2"
   version="1.1"
   inkscape:version="0.91 r13725"
   sodipodi:docname="deloitte-logo.svg"
   inkscape:export-filename="C:\Users\Daijin\Desktop\Deloitte.png"
   inkscape:export-xdpi="90"
   inkscape:export-ydpi="90">
  <defs
     id="defs4">
    <clipPath
       id="clipPath3350"
       clipPathUnits="userSpaceOnUse">
      <path
         inkscape:connector-curvature="0"
         id="path3352"
         d="m 42.52,723.968 130.394,0 0,24.378 -130.394,0 0,-24.378 z" />
    </clipPath>
    <clipPath
       id="clipPath3708"
       clipPathUnits="userSpaceOnUse">
      <path
         inkscape:connector-curvature="0"
         id="path3710"
         d="m 335.433,531.507 135,0 0,51.596 -135,0 0,-51.596 z" />
    </clipPath>
    <clipPath
       id="clipPath3862"
       clipPathUnits="userSpaceOnUse">
      <path
         inkscape:connector-curvature="0"
         id="path3864"
         d="m 335.433,476.232 135,0 0,51.565 -135,0 0,-51.565 z" />
    </clipPath>
    <clipPath
       id="clipPath3882"
       clipPathUnits="userSpaceOnUse">
      <path
         inkscape:connector-curvature="0"
         id="path3884"
         d="m 335.433,420.927 135,0 0,51.564 -135,0 0,-51.564 z" />
    </clipPath>
    <clipPath
       id="clipPath3936"
       clipPathUnits="userSpaceOnUse">
      <path
         inkscape:connector-curvature="0"
         id="path3938"
         d="m 335.433,365.621 135,0 0,51.564 -135,0 0,-51.564 z" />
    </clipPath>
    <clipPath
       id="clipPath3984"
       clipPathUnits="userSpaceOnUse">
      <path
         inkscape:connector-curvature="0"
         id="path3986"
         d="m 335.433,310.315 135,0 0,51.564 -135,0 0,-51.564 z" />
    </clipPath>
    <clipPath
       id="clipPath4038"
       clipPathUnits="userSpaceOnUse">
      <path
         inkscape:connector-curvature="0"
         id="path4040"
         d="m 335.433,255.01 135,0 0,51.564 -135,0 0,-51.564 z" />
    </clipPath>
    <clipPath
       id="clipPath3350-9"
       clipPathUnits="userSpaceOnUse">
      <path
         inkscape:connector-curvature="0"
         id="path3352-1"
         d="m 42.52,723.968 130.394,0 0,24.378 -130.394,0 0,-24.378 z" />
    </clipPath>
  </defs>
  <sodipodi:namedview
     id="base"
     pagecolor="#ffffff"
     bordercolor="#666666"
     borderopacity="1.0"
     inkscape:pageopacity="0"
     inkscape:pageshadow="2"
     inkscape:zoom="0.6636812"
     inkscape:cx="35.850571"
     inkscape:cy="98.493252"
     inkscape:document-units="px"
     inkscape:current-layer="g3359"
     showgrid="false"
     fit-margin-top="10"
     fit-margin-left="10"
     fit-margin-right="10"
     fit-margin-bottom="10"
     units="px"
     inkscape:window-width="1920"
     inkscape:window-height="1017"
     inkscape:window-x="-8"
     inkscape:window-y="-8"
     inkscape:window-maximized="1" />
  <metadata
     id="metadata7">
    <rdf:RDF>
      <cc:Work
         rdf:about="">
        <dc:format>image/svg+xml</dc:format>
        <dc:type
           rdf:resource="http://purl.org/dc/dcmitype/StillImage" />
        <dc:title />
      </cc:Work>
    </rdf:RDF>
  </metadata>
  <g
     inkscape:label="Layer 1"
     inkscape:groupmode="layer"
     id="layer1"
     transform="translate(-2521.9698,-654.34261)">
    <g
       id="g3359"
       transform="matrix(3.0676446,0,0,3.0676446,-6165.655,-2195.369)">
      <path
         d="m 3111.0475,980.89877 c 0,-4.22539 3.4305,-7.65354 7.6536,-7.65354 4.2254,0 7.6514,3.42815 7.6514,7.65354 0,4.2254 -3.426,7.65134 -7.6514,7.65134 -4.2231,0 -7.6536,-3.42594 -7.6536,-7.65134"
         style="fill:#86bc24;fill-opacity:1;fill-rule:nonzero;stroke:none"
         id="path3356"
         inkscape:connector-curvature="0" />
      <path
         d="m 2866.9619,960.62993 c 0,-4.84769 -0.9366,-8.44414 -2.8102,-10.78716 -1.8758,-2.34079 -4.7172,-3.51009 -8.5372,-3.51009 l -4.0637,0 0,29.64421 3.1093,0 c 4.2431,0 7.3524,-1.25788 9.3322,-3.78248 1.9775,-2.52018 2.9696,-6.37574 2.9696,-11.56448 m 14.4922,-0.50492 c 0,8.8317 -2.3741,15.63706 -7.1221,20.41389 -4.748,4.77903 -11.4227,7.16855 -20.0264,7.16855 l -16.7177,0 0,-52.92152 17.8849,0 c 8.2957,0 14.7003,2.17249 19.2135,6.51526 4.5112,4.34498 6.7678,10.61663 6.7678,18.82382"
         style="fill:#0f0b0b;fill-opacity:1;fill-rule:nonzero;stroke:none"
         id="path3360"
         inkscape:connector-curvature="0" />
      <path
         inkscape:connector-curvature="0"
         id="path3362"
         style="fill:#0f0b0b;fill-opacity:1;fill-rule:nonzero;stroke:none"
         d="m 2927.7624,987.7068 13.3029,0 0,-53.14298 -13.3029,0 0,53.14298 z" />
      <path
         d="m 2959.7534,967.8842 c 0,3.38829 0.4429,5.97269 1.3266,7.74877 0.8858,1.7783 2.3694,2.66634 4.4555,2.66634 2.064,0 3.5235,-0.88804 4.3739,-2.66634 0.8504,-1.77608 1.2733,-4.36048 1.2733,-7.74877 0,-3.37057 -0.4296,-5.91289 -1.291,-7.62918 -0.8637,-1.72072 -2.3365,-2.58219 -4.4247,-2.58219 -2.0419,0 -3.5012,0.85704 -4.387,2.56225 -0.8837,1.70744 -1.3266,4.2564 -1.3266,7.64912 m 24.9691,0 c 0,6.45547 -1.6919,11.49139 -5.0846,15.10114 -3.3904,3.61196 -8.1363,5.41905 -14.2374,5.41905 -5.8509,0 -10.5082,-1.84695 -13.965,-5.54085 -3.4613,-3.6939 -5.191,-8.68554 -5.191,-14.97934 0,-6.43553 1.6943,-11.43603 5.087,-15.00148 3.3925,-3.56545 8.1494,-5.34818 14.2749,-5.34818 3.7848,0 7.1332,0.82603 10.0343,2.47589 2.9032,1.64985 5.1445,4.01279 6.719,7.09104 1.5768,3.07382 2.3628,6.67028 2.3628,10.78273"
         style="fill:#0f0b0b;fill-opacity:1;fill-rule:nonzero;stroke:none"
         id="path3366"
         inkscape:connector-curvature="0" />
      <path
         d="m 2990.0056,987.70701 13.3051,0 0,-20.33859 0,-19.13608 -13.3051,0 0,39.47467 z"
         style="fill:#0f0b0b;fill-opacity:1;fill-rule:nonzero;stroke:none"
         id="path3370"
         inkscape:connector-curvature="0" />
      <path
         inkscape:connector-curvature="0"
         id="path3372"
         style="fill:#0f0b0b;fill-opacity:1;fill-rule:nonzero;stroke:none"
         d="m 2990.0051,943.45752 13.3051,0 0,-8.89592 -13.3051,0 0,8.89592 z" />
      <path
         d="m 3030.2661,977.63849 c 1.7961,0 3.9354,-0.4562 6.4311,-1.36196 l 0,9.93233 c -1.7938,0.78839 -3.499,1.35311 -5.1201,1.6875 -1.621,0.33883 -3.5234,0.50714 -5.7003,0.50714 -4.4668,0 -7.6866,-1.12279 -9.6643,-3.36393 -1.9687,-2.24114 -2.9564,-5.68258 -2.9564,-10.32653 l 0,-16.27264 -4.6594,0 0,-10.20473 4.6594,0 0,-10.08071 13.407,-2.33194 0,12.41265 8.4883,0 0,10.20473 -8.4883,0 0,15.36467 c 0,2.55561 1.2024,3.83342 3.603,3.83342"
         style="fill:#0f0b0b;fill-opacity:1;fill-rule:nonzero;stroke:none"
         id="path3376"
         inkscape:connector-curvature="0" />
      <path
         d="m 3061.0591,977.63849 c 1.7961,0 3.9353,-0.4562 6.4311,-1.36196 l 0,9.93233 c -1.7915,0.78839 -3.4991,1.35311 -5.1201,1.6875 -1.6232,0.33883 -3.5189,0.50714 -5.7003,0.50714 -4.4667,0 -7.6867,-1.12279 -9.66,-3.36393 -1.9731,-2.24114 -2.9608,-5.68258 -2.9608,-10.32653 l 0,-16.27264 -4.6617,0 0,-10.20473 4.6617,0 0,-10.23352 13.4047,-2.17913 0,12.41265 8.493,0 0,10.20473 -8.493,0 0,15.36467 c 0,2.55561 1.2026,3.83342 3.6054,3.83342"
         style="fill:#0f0b0b;fill-opacity:1;fill-rule:nonzero;stroke:none"
         id="path3380"
         inkscape:connector-curvature="0" />
      <path
         d="m 3084.278,963.07526 c 0.1816,-2.16142 0.7995,-3.74483 1.8535,-4.75689 1.0587,-1.00985 2.3653,-1.51477 3.9288,-1.51477 1.7052,0 3.0606,0.56693 4.066,1.70965 1.0119,1.13607 1.539,2.65748 1.5812,4.56201 l -11.4295,0 z m 18.7618,-10.88682 c -3.1624,-3.10039 -7.6491,-4.6528 -13.4534,-4.6528 -6.1012,0 -10.7961,1.78272 -14.0869,5.34818 -3.2888,3.56545 -4.9341,8.6811 -4.9341,15.34695 0,6.45547 1.7784,11.43382 5.3261,14.9284 3.5499,3.49459 8.5348,5.2441 14.9549,5.2441 3.0827,0 5.7357,-0.21038 7.9592,-0.62894 2.2101,-0.41412 4.3494,-1.16264 6.4245,-2.24335 l -2.0441,-8.89592 c -1.5081,0.61565 -2.9431,1.08956 -4.2984,1.40182 -1.9577,0.45399 -4.1058,0.68209 -6.4446,0.68209 -2.5643,0 -4.5884,-0.62673 -6.0721,-1.88017 -1.4838,-1.25566 -2.2745,-2.98745 -2.3652,-5.19316 l 23.78,0 0,-6.06128 c 0,-5.83095 -1.5814,-10.29774 -4.7459,-13.39592"
         style="fill:#0f0b0b;fill-opacity:1;fill-rule:nonzero;stroke:none"
         id="path3384"
         inkscape:connector-curvature="0" />
      <path
         d="m 2899.1105,963.07526 c 0.1816,-2.16142 0.7996,-3.74483 1.8536,-4.75689 1.0564,-1.00985 2.3651,-1.51477 3.9309,-1.51477 1.7008,0 3.0561,0.56693 4.0638,1.70965 1.012,1.13607 1.5368,2.65748 1.5833,4.56201 l -11.4316,0 z m 18.764,-10.88682 c -3.1645,-3.10039 -7.6491,-4.6528 -13.4555,-4.6528 -6.1036,0 -10.7962,1.78272 -14.0849,5.34818 -3.2885,3.56545 -4.9362,8.6811 -4.9362,15.34695 0,6.45547 1.7761,11.43382 5.3283,14.9284 3.5477,3.49459 8.5326,5.2441 14.9528,5.2441 3.0826,0 5.7357,-0.21038 7.9591,-0.62894 2.2102,-0.41412 4.3494,-1.16264 6.4267,-2.24335 l -2.0463,-8.89592 c -1.5082,0.61565 -2.9432,1.08956 -4.2962,1.40182 -1.9621,0.45399 -4.108,0.68209 -6.4467,0.68209 -2.5622,0 -4.5884,-0.62673 -6.0722,-1.88017 -1.4861,-1.25566 -2.2744,-2.98745 -2.3652,-5.19316 l 23.7801,0 0,-6.06128 c 0,-5.83095 -1.5814,-10.29774 -4.7438,-13.39592"
         style="fill:#0f0b0b;fill-opacity:1;fill-rule:nonzero;stroke:none"
         id="path3388"
         inkscape:connector-curvature="0" />
    </g>
  </g>
</svg>
